<?xml version="1.0" encoding="UTF-8"?><svg xmlns="http://www.w3.org/2000/svg" xmlns:xlink="http://www.w3.org/1999/xlink" viewBox="0 0 1144.3 965.94"><defs><style>.cls-1{fill:#aada46;}.cls-2{fill:url(#linear-gradient-2);}.cls-3{clip-path:url(#clippath-11);}.cls-4{fill:#df7f71;}.cls-5{fill:url(#linear-gradient-6);}.cls-6{clip-path:url(#clippath-2);}.cls-7{clip-path:url(#clippath-13);}.cls-8{fill:url(#radial-gradient-4);}.cls-9{isolation:isolate;}.cls-10{fill:#521612;}.cls-11{fill:#e38a7e;}.cls-12{fill:#dd527a;}.cls-13{clip-path:url(#clippath-15);}.cls-14{clip-path:url(#clippath-6);}.cls-15{clip-path:url(#clippath-7);}.cls-16{fill:#a32526;}.cls-17{clip-path:url(#clippath-1);}.cls-18{clip-path:url(#clippath-4);}.cls-19{fill:url(#radial-gradient);}.cls-20{fill:#f4bdac;}.cls-21{fill:#ce5f52;}.cls-22{clip-path:url(#clippath-12);}.cls-23,.cls-24{mix-blend-mode:screen;}.cls-25{fill:#a22c37;}.cls-26{fill:url(#linear-gradient-5);}.cls-27{clip-path:url(#clippath-9);}.cls-28{clip-path:url(#clippath);}.cls-29{fill:#ce4548;}.cls-30{fill:url(#radial-gradient-2);}.cls-31{fill:none;}.cls-32{fill:url(#radial-gradient-3);}.cls-33{clip-path:url(#clippath-3);}.cls-34{clip-path:url(#clippath-8);}.cls-35{fill:#841c27;}.cls-36{mix-blend-mode:multiply;opacity:.6;}.cls-37{fill:#871c18;}.cls-24{opacity:.2;}.cls-38{fill:#9fad38;}.cls-39{clip-path:url(#clippath-14);}.cls-40{fill:url(#linear-gradient-3);}.cls-41{fill:#e0786e;}.cls-42{clip-path:url(#clippath-5);}.cls-43{fill:url(#linear-gradient);}.cls-44{clip-path:url(#clippath-10);}.cls-45{fill:url(#linear-gradient-4);}</style><clipPath id="clippath"><rect class="cls-31" x="246.57" y="472.84" width="527" height="305.25"/></clipPath><clipPath id="clippath-1"><rect class="cls-31" x="166.79" y="466.13" width="906.49" height="485.09"/></clipPath><clipPath id="clippath-2"><path class="cls-31" d="M342.82,370.57l86.46,21.98,83.16,6.98,108.1,81.12c30.89-13.77,50.55-30.47,61.49-52.14,18.78-37.25-.74-75.78-45.18-101.43-20.23-11.68-45.64-20.7-74.95-25.7-16.71-2.85-33.55-4.21-50.11-4.21-76.29,0-146.51,28.86-168.96,73.4"/></clipPath><linearGradient id="linear-gradient" x1="-167.94" y1="2702.66" x2="-166.94" y2="2702.66" gradientTransform="translate(58502.6 936366.62) scale(346.32 -346.32)" gradientUnits="userSpaceOnUse"><stop offset="0" stop-color="#f2aa91"/><stop offset="1" stop-color="#f4bfad"/></linearGradient><clipPath id="clippath-3"><rect class="cls-31" x="178.22" y="660.69" width="251.1" height="73.51"/></clipPath><clipPath id="clippath-4"><path class="cls-31" d="M428.82,663.99c-.42,2.13-1.13,5.26-2.71,8.99-2.93,7.56-9.85,17.1-20.43,25.92-10.52,8.92-25.05,16.37-41.46,21.56-16.42,5.24-34.79,8.07-53.19,8.93-18.39,1.08-36.92-.18-53.81-3.73-16.88-3.53-32.22-8.91-44.37-15.58-12.22-6.44-21.4-13.68-26.87-19.65-5.54-5.94-7.76-10.1-7.76-10.1,0,0,1.96,4.28,7.19,10.6,5.21,6.27,13.91,14.45,26.21,21.4,12.13,7.09,27.55,13.42,44.77,17.21,17.22,3.81,36.11,5.31,54.87,4.41,18.73-1.06,37.41-4.17,54.19-9.72,16.8-5.47,31.38-13.94,41.92-23.38,10.63-9.39,16.89-19.83,19.47-27.6,1.37-3.87,1.89-7.07,2.19-9.23,.28-2.17,.3-3.33,.3-3.33,0,0-.09,1.16-.5,3.3"/></clipPath><radialGradient id="radial-gradient" cx="-167.99" cy="2707.4" fx="-167.99" fy="2707.4" r="1" gradientTransform="translate(29597.55 472688.67) scale(174.32 -174.32)" gradientUnits="userSpaceOnUse"><stop offset="0" stop-color="#c5bd3f"/><stop offset=".03" stop-color="#beb73d"/><stop offset=".7" stop-color="#363411"/><stop offset="1" stop-color="#000"/></radialGradient><clipPath id="clippath-5"><rect class="cls-31" x="234.82" y="161.01" width="550.34" height="375.53"/></clipPath><clipPath id="clippath-6"><path class="cls-31" d="M773.57,321.09l-.16,56.84c.11-39.35-25.8-78.76-77.68-108.71-103.14-59.55-270.37-59.55-372.84,0-50.88,29.57-76.36,68.35-76.47,107.2l.16-56.84c.11-38.85,25.58-77.63,76.47-107.2,102.47-59.55,269.7-59.55,372.84,0,51.88,29.95,77.79,69.36,77.68,108.71"/></clipPath><linearGradient id="linear-gradient-2" x1="-167.92" y1="2701.02" x2="-166.92" y2="2701.02" gradientTransform="translate(88765.21 1424123.4) scale(527.16 -527.16)" gradientUnits="userSpaceOnUse"><stop offset="0" stop-color="#df7470"/><stop offset="1" stop-color="#b52b2b"/></linearGradient><clipPath id="clippath-7"><rect class="cls-31" x="246.57" y="201.79" width="527" height="305.25"/></clipPath><clipPath id="clippath-8"><path class="cls-31" d="M324.29,462.4c103.11,59.53,270.34,59.53,372.77,0,102.47-59.55,101.93-156.41-1.18-215.94-103.14-59.55-270.37-59.55-372.84,0-102.44,59.53-101.89,156.4,1.25,215.94"/></clipPath><linearGradient id="linear-gradient-3" x1="-167.92" y1="2701.01" x2="-166.92" y2="2701.01" gradientTransform="translate(88738.41 1423771.6) scale(526.99 -526.99)" gradientUnits="userSpaceOnUse"><stop offset="0" stop-color="#f7d5cd"/><stop offset="1" stop-color="#fae9f7"/></linearGradient><clipPath id="clippath-9"><path class="cls-31" d="M785.16,321.13l-.16,56.84c-.11,40.57-26.72,81.07-79.86,111.96-106.93,62.14-281.56,62.14-389.19,0-54.19-31.28-81.25-72.44-81.13-113.53l.16-56.84c-.12,41.09,26.94,82.25,81.13,113.53,107.63,62.14,282.26,62.14,389.19,0,53.14-30.88,79.74-71.39,79.86-111.96"/></clipPath><linearGradient id="linear-gradient-4" x1="-167.92" y1="2700.86" x2="-166.92" y2="2700.86" gradientTransform="translate(92646.22 1486833.21) scale(550.34 -550.34)" gradientUnits="userSpaceOnUse"><stop offset="0" stop-color="#b52b2b"/><stop offset="1" stop-color="#df7470"/></linearGradient><clipPath id="clippath-10"><path class="cls-31" d="M704.07,207.63c107.63,62.14,108.2,163.29,1.23,225.45-106.93,62.14-281.56,62.14-389.19,0-107.67-62.16-108.24-163.31-1.31-225.45,106.97-62.16,281.6-62.16,389.26,0m-379.78,220.7c103.11,59.53,270.34,59.53,372.77,0,102.47-59.55,101.93-156.42-1.18-215.94-103.14-59.55-270.37-59.55-372.84,0-102.44,59.53-101.89,156.4,1.25,215.94"/></clipPath><linearGradient id="linear-gradient-5" x1="-167.92" y1="2700.88" x2="-166.92" y2="2700.88" gradientTransform="translate(92619.44 1486292.45) scale(550.18 -550.18)" gradientUnits="userSpaceOnUse"><stop offset="0" stop-color="#f3b8a6"/><stop offset=".46" stop-color="#f7d5cd"/><stop offset="1" stop-color="#fae9f7"/></linearGradient><clipPath id="clippath-11"><path class="cls-31" d="M792.66,476.43c-.09-.05-.19-.11-.28-.16l.28,.16Zm-87.32-39.84c-12.21,7.05-22.11,24.19-22.11,38.29,0,6.96,2.42,11.88,6.33,14.23l71.54,41.3c-3.92-2.35-6.33-7.26-6.33-14.23,0-14.1,9.9-31.24,22.11-38.29,6.03-3.48,11.51-3.85,15.49-1.63l-71.26-41.14c-1.71-1.02-3.7-1.56-5.9-1.56-2.97,0-6.33,.97-9.87,3.02"/></clipPath><linearGradient id="linear-gradient-6" x1="-190.78" y1="2684.35" x2="-189.78" y2="2684.35" gradientTransform="translate(-11159.46 -167373.22) rotate(180) scale(62.53 -62.53)" gradientUnits="userSpaceOnUse"><stop offset="0" stop-color="#fae9f3"/><stop offset=".52" stop-color="#f7d0c7"/><stop offset=".69" stop-color="#f1c1b8"/><stop offset="1" stop-color="#e49e98"/></linearGradient><clipPath id="clippath-12"><path class="cls-31" d="M1052.13,618.88c-20.79,12-37.64,41.19-37.64,65.2s16.85,33.73,37.64,21.73c20.79-12,37.64-41.19,37.64-65.2,0-15.78-7.28-25.39-18.17-26.71-.87-.11-1.75-.16-2.66-.16-5.06,0-10.77,1.65-16.81,5.14"/></clipPath><radialGradient id="radial-gradient-2" cx="-168" cy="2708.07" fx="-168" fy="2708.07" r="1" gradientTransform="translate(28416.22 441712.86) scale(162.88 -162.88)" gradientUnits="userSpaceOnUse"><stop offset="0" stop-color="#543524"/><stop offset=".1" stop-color="#4f3122"/><stop offset=".44" stop-color="#472a1e"/><stop offset="1" stop-color="#45281d"/></radialGradient><clipPath id="clippath-13"><path class="cls-31" d="M1078.99,616.38c-.16-.1-.32-.19-.49-.28l.49,.28Zm-295.82-152.79c-20.79,12-37.64,41.19-37.64,65.2,0,11.86,4.11,20.23,10.78,24.23l268.96,155.29c-6.67-3.99-10.78-12.37-10.78-24.23,0-24,16.85-53.19,37.64-65.2,10.27-5.93,19.58-6.55,26.37-2.78l-268.47-155c-2.91-1.74-6.3-2.65-10.05-2.65-5.06,0-10.77,1.65-16.81,5.14"/></clipPath><radialGradient id="radial-gradient-3" cx="-168" cy="2708.07" fx="-168" fy="2708.07" r="1" gradientTransform="translate(28416.14 441711.55) scale(162.88 -162.88)" xlink:href="#radial-gradient-2"/><clipPath id="clippath-14"><rect class="cls-31" x="1014.11" y="612.95" width="57.49" height="71.12"/></clipPath><clipPath id="clippath-15"><path class="cls-31" d="M1014.49,684.07c9.41-46.05,40.39-70.41,57.11-70.18-21.46-7.49-61.83,30.99-57.11,70.18"/></clipPath><radialGradient id="radial-gradient-4" cx="-168.1" cy="2715.83" fx="-168.1" fy="2715.83" r="1" gradientTransform="translate(16623.77 252050.98) scale(92.58 -92.58)" gradientUnits="userSpaceOnUse"><stop offset="0" stop-color="#91c43e"/><stop offset=".05" stop-color="#729b31"/><stop offset=".1" stop-color="#587725"/><stop offset=".15" stop-color="#40561b"/><stop offset=".21" stop-color="#2b3b12"/><stop offset=".28" stop-color="#1b250b"/><stop offset=".36" stop-color="#0f1406"/><stop offset=".47" stop-color="#060802"/><stop offset=".61" stop-color="#010100"/><stop offset="1" stop-color="#000"/></radialGradient><clipPath id="clippath-16"><rect class="cls-31" x="439.28" width="493.72" height="493.73"/></clipPath><clipPath id="clippath-18"><rect class="cls-31" x="337.72" y="56.87" width="778.74" height="778.74"/></clipPath><clipPath id="clippath-20"><rect class="cls-31" x="604.01" y="124.44" width="164.26" height="164.26"/></clipPath><clipPath id="clippath-22"><rect class="cls-31" x="980.04" y="531.61" width="164.26" height="164.26"/></clipPath><clipPath id="clippath-24"><rect class="cls-31" x="119.07" y="481.25" width="484.7" height="484.7"/></clipPath><clipPath id="clippath-26"><rect class="cls-31" y="377.94" width="333.58" height="333.58"/></clipPath></defs><g class="cls-9"><g id="Layer_2"><g id="Layer_1-2"><g><g class="cls-24"><g class="cls-28"><path class="cls-12" d="M324.29,733.45c-103.14-59.55-103.69-156.41-1.25-215.94,102.47-59.55,269.7-59.55,372.84,0,103.11,59.53,103.65,156.39,1.18,215.94-102.44,59.53-269.67,59.53-372.77,0"/></g></g><g class="cls-36"><g class="cls-17"><path class="cls-10" d="M1069.25,909.6l-266.21-153.7c-5.37-3.1-14.07-3.1-19.44,0l-1.57,.9-55.86-32.25c85.43-62.53,77.98-154.02-22.1-211.8-107.67-62.16-282.29-62.16-389.26,0-106.93,62.14-106.36,163.29,1.3,225.45,99.74,57.58,256.91,61.7,364.53,12.57l55.93,32.29-1.57,.9c-5.37,3.1-5.37,8.12,0,11.23l266.21,153.7c5.37,3.1,14.07,3.1,19.44,0l48.6-28.06c5.37-3.1,5.37-8.12,0-11.23m-744.96-176.15c-103.14-59.55-103.69-156.41-1.25-215.94,102.47-59.55,269.7-59.55,372.84,0,103.11,59.53,103.65,156.39,1.18,215.94-102.44,59.53-269.67,59.53-372.77,0"/><path class="cls-10" d="M686.97,596.81c25.83,55.65-31.38,112.86-127.77,127.77-96.4,14.91-195.48-18.12-221.31-73.77-25.83-55.65,31.38-112.86,127.77-127.77,96.39-14.91,195.48,18.11,221.31,73.77"/><path class="cls-10" d="M428.01,735.95c18.99,40.92-23.07,82.98-93.95,93.95-70.88,10.97-143.73-13.32-162.72-54.24-18.99-40.92,23.07-82.98,93.94-93.95,70.88-10.96,143.73,13.32,162.72,54.24"/></g></g><path class="cls-35" d="M186.49,482.12v153.91c-.06,3.76,2.39,7.53,7.36,10.4,9.82,5.67,25.73,5.67,35.55,0,4.85-2.8,7.3-6.46,7.36-10.13v-153.91l-50.27-.27Z"/><path class="cls-25" d="M229.28,471.8c-3.93-2.27-8.35-3.57-13.82-4.07-10.93-1-21.2,2.03-26.19,7.74-4.99,5.71-3.15,12.32,4.7,16.85,5.89,3.4,13.46,4.83,21.66,4.07,8.19-.75,14.61-3.46,18.36-7.74,4.99-5.71,3.15-12.32-4.7-16.85"/><path class="cls-41" d="M140.73,530.25v132.2c-.06,3.76,2.39,7.53,7.36,10.4,9.82,5.67,25.73,5.67,35.55,0,4.85-2.8,7.3-6.46,7.36-10.13v-132.2l-50.27-.27Z"/><path class="cls-1" d="M183.51,519.94c-3.93-2.27-8.35-3.57-13.82-4.07-10.93-1-21.2,2.03-26.19,7.74-4.99,5.71-3.15,12.32,4.7,16.85,5.89,3.4,13.46,4.83,21.66,4.07,8.19-.75,14.61-3.46,18.36-7.74,4.99-5.71,3.15-12.32-4.7-16.85"/><path class="cls-35" d="M94.96,577.65v111.22c-.06,3.76,2.39,7.53,7.36,10.39,9.82,5.67,25.73,5.67,35.55,0,4.85-2.8,7.3-6.46,7.36-10.13v-111.22l-50.27-.27Z"/><path class="cls-25" d="M137.75,567.34c-3.93-2.27-8.35-3.57-13.82-4.07-10.93-1-21.2,2.03-26.19,7.74-4.99,5.71-3.15,12.32,4.7,16.85,5.89,3.4,13.46,4.83,21.66,4.07,8.19-.75,14.61-3.46,18.36-7.74,4.99-5.71,3.15-12.32-4.7-16.85"/><path class="cls-11" d="M48.48,632.64v83.07c-.06,3.76,2.39,7.53,7.36,10.39,9.82,5.67,25.73,5.67,35.55,0,4.85-2.8,7.3-6.46,7.36-10.13v-83.07l-50.27-.27Z"/><path class="cls-20" d="M91.27,622.33c-3.92-2.27-8.35-3.57-13.82-4.07-10.93-1-21.2,2.03-26.19,7.74-4.99,5.71-3.15,12.32,4.7,16.85,5.89,3.4,13.46,4.83,21.66,4.07,8.19-.75,14.61-3.46,18.35-7.74,4.99-5.71,3.15-12.32-4.7-16.85"/><path class="cls-29" d="M2.01,684.52v58.02c-.06,3.76,2.39,7.53,7.36,10.39,9.82,5.67,25.73,5.67,35.55,0,4.85-2.8,7.3-6.46,7.36-10.13v-58.02l-50.27-.27Z"/><path class="cls-38" d="M44.79,674.21c-3.93-2.27-8.35-3.57-13.82-4.07-10.93-1-21.21,2.03-26.19,7.74-4.99,5.71-3.15,12.32,4.7,16.85,5.89,3.4,13.46,4.83,21.66,4.07,8.19-.75,14.61-3.46,18.35-7.74,4.99-5.71,3.15-12.32-4.7-16.85"/><path class="cls-35" d="M336.14,399.41v216.26c-.42,26.37,16.8,52.82,51.65,72.94,68.87,39.76,180.54,39.76,249.41,0,34.02-19.64,51.24-45.31,51.65-71.06v-216.26l-352.71-1.88Z"/><path class="cls-35" d="M346.61,399.47l-10.47-.06v216.26c-.19,11.95,3.4,23.89,10.47,35.28v-251.48Z"/><path class="cls-41" d="M649.07,401.08l-186.65-.99v314.09c59.96,10.22,127.45,1.76,174.77-25.56,4.22-2.43,8.17-4.96,11.88-7.57V401.08Z"/><path class="cls-4" d="M620.81,400.93v295.99c5.67-2.55,11.17-5.29,16.39-8.3,34.02-19.64,51.24-45.32,51.65-71.06v-216.26l-68.04-.36Z"/><path class="cls-1" d="M512.43,399.54l108.1,81.12c-46.27,20.67-101.39,26.63-157.59,17.02l49.49-98.14Z"/><g class="cls-6"><rect class="cls-43" x="342.82" y="297.17" width="357.98" height="183.49"/></g><path class="cls-25" d="M512.43,399.54l-49.49,98.14c-29.65-5.07-55.02-13.68-75.29-25.38-18.14-10.47-32.18-23.42-41.54-38.51l166.31-34.24Z"/><path class="cls-25" d="M512.43,399.54l-166.31,34.24c-13.16-21.31-14.24-41.54-3.3-63.21l169.61,28.97Z"/><path class="cls-41" d="M296.64,658.48v165c34.29,.62,68.93-6.55,95.1-21.66,24.84-14.34,37.41-33.08,37.71-51.88v-90.75l-132.81-.71Z"/><path class="cls-4" d="M200.7,657.97v138.12c2.78,1.98,5.77,3.89,8.96,5.74,30.4,17.55,72.21,24.45,111.64,20.77v-163.98l-120.6-.64Z"/><path class="cls-41" d="M415.05,659.11v124.24c9.36-10.46,14.22-21.91,14.4-33.41v-90.75l-14.4-.08Z"/><path class="cls-35" d="M210.64,658.02l-38.69-.21v90.76c-.3,19.25,12.26,38.56,37.71,53.25,.32,.18,.65,.35,.98,.53v-144.32Z"/><path class="cls-20" d="M300.69,657.55l20.51,73.42c-42,3.86-80.78-3.44-110.95-20.86l90.44-52.56Z"/><path class="cls-1" d="M391.14,604.99c40.22,23.22,49.67,57.05,24.08,86.31l-114.53-33.75,90.44-52.56Z"/><path class="cls-1" d="M415.22,691.3c-19.19,21.96-52.06,35.81-94.02,39.67l-20.51-73.42,114.53,33.75Z"/><path class="cls-25" d="M300.69,657.55l-90.44,52.56c-40.21-23.21-49.65-57.04-24.07-86.3l114.51,33.74Z"/><path class="cls-38" d="M320.35,584.14l-19.66,73.41-114.51-33.74c25.55-29.26,78.16-44.8,134.17-39.67"/><path class="cls-21" d="M391.14,604.99l-90.44,52.56,19.66-73.41c28.01,2.58,50.68,9.24,70.78,20.85"/><g class="cls-23"><g class="cls-33"><g class="cls-18"><rect class="cls-19" x="178.22" y="660.69" width="251.1" height="74.15"/></g></g></g><g class="cls-9"><g class="cls-42"><g class="cls-14"><rect class="cls-2" x="246.41" y="152.84" width="527.27" height="225.1"/></g><path class="cls-37" d="M323.04,246.46c102.47-59.55,269.7-59.55,372.84,0,47.59,27.47,73.27,62.91,77.12,98.95,4.45-42.32-21.23-85.55-77.12-117.82-103.14-59.55-270.37-59.55-372.84,0-55.15,32.05-80.39,74.92-75.91,116.96,3.76-35.74,29-70.83,75.91-98.09"/><g class="cls-24"><g class="cls-15"><g class="cls-34"><rect class="cls-40" x="220.61" y="186.91" width="578.93" height="335.02"/></g></g></g><g class="cls-27"><rect class="cls-45" x="234.7" y="319.55" width="550.46" height="232.52"/></g><g class="cls-44"><rect class="cls-26" x="207.87" y="145.47" width="604.4" height="349.76"/></g></g></g><path class="cls-16" d="M754.78,516.19c0,14.1,9.9,19.81,22.11,12.77,12.21-7.05,22.11-24.19,22.11-38.29s-9.9-19.82-22.11-12.77c-12.21,7.05-22.11,24.19-22.11,38.29"/><g class="cls-3"><rect class="cls-5" x="668.66" y="410.4" width="138.58" height="143.19" transform="translate(-48.45 880.08) rotate(-60)"/></g><g class="cls-22"><rect class="cls-30" x="1014.49" y="613.74" width="75.28" height="104.07"/></g><g class="cls-7"><rect class="cls-32" x="745.53" y="458.45" width="333.46" height="249.85"/></g><g class="cls-23"><g class="cls-39"><g class="cls-13"><rect class="cls-8" x="1009.77" y="606.41" width="61.83" height="77.66"/></g></g></g></g></g></g></g></svg>