<?xml version="1.0" encoding="UTF-8"?><svg id="Layer_2" xmlns="http://www.w3.org/2000/svg" xmlns:xlink="http://www.w3.org/1999/xlink" viewBox="0 0 1351.09 1052.75"><defs><style>.cls-1{fill:#aada46;}.cls-2{fill:url(#linear-gradient-2);}.cls-3{fill:#df7878;}.cls-4{clip-path:url(#clippath-2);}.cls-5{fill:#521612;}.cls-6{fill:#b52b2b;}.cls-7{clip-path:url(#clippath-1);}.cls-8{clip-path:url(#clippath);}.cls-9{fill:#f7d0c7;}.cls-10{fill:none;}.cls-11{fill:#94b339;}.cls-12{fill:url(#linear-gradient);}.cls-13{fill:#b1a738;}</style><clipPath id="clippath"><rect class="cls-10" x="102.17" y="358.59" width="1083.33" height="627.66"/></clipPath><clipPath id="clippath-1"><path class="cls-10" d="M779.55,393.57c-1.7,.99-4.27,1.38-6.55,.93-6.83-1.28-12.88-3.52-17.91-6.42-5.75-3.32-10.16-7.51-12.87-12.11-2.3-3.96-6.21-7.65-11.74-10.84-21.34-12.32-57.33-10.84-75.1,4.34-5.32,4.63-7.99,10.05-8.01,15.47l-.03,12.16c.01-5.42,2.69-10.84,8.01-15.47,17.77-15.18,53.75-16.67,75.09-4.35,5.53,3.19,9.44,6.88,11.74,10.84,2.71,4.61,7.12,8.79,12.87,12.11,5.03,2.9,11.08,5.14,17.91,6.43,2.28,.44,4.84,.05,6.55-.93l77.34-44.94,.03-12.17-77.34,44.94Z"/></clipPath><linearGradient id="linear-gradient" x1="677.3" y1="2633.54" x2="678.3" y2="2633.54" gradientTransform="translate(11342.77 -40690.64) rotate(-180) scale(15.59 -15.59)" gradientUnits="userSpaceOnUse"><stop offset="0" stop-color="#df7878"/><stop offset=".67" stop-color="#c04040"/><stop offset="1" stop-color="#b52b2b"/></linearGradient><clipPath id="clippath-2"><path class="cls-10" d="M394.48,617.57l-73.45,42.69-.04,12.16,73.46-42.69c5.11-2.97,13.27-3.63,19.37-1.32,2.74,1.04,5.28,2.24,7.61,3.59,5.69,3.29,10.08,7.4,12.8,11.93,2.3,3.96,6.22,7.76,11.65,10.89,21.34,12.32,57.42,10.89,75.19-4.4,5.35-4.59,8.03-10,8.04-15.42l.03-12.16c-.02,5.42-2.69,10.82-8.04,15.41-17.77,15.29-53.85,16.72-75.19,4.4-5.43-3.14-9.35-6.93-11.65-10.89-2.72-4.53-7.11-8.64-12.8-11.93-2.33-1.34-4.87-2.55-7.61-3.59-2.48-.94-5.31-1.39-8.13-1.39-4.11,0-8.21,.95-11.24,2.71"/></clipPath><linearGradient id="linear-gradient-2" x1="637.67" y1="2725.91" x2="638.67" y2="2725.91" gradientTransform="translate(70282.92 -297685.12) rotate(-180) scale(109.44 -109.44)" gradientUnits="userSpaceOnUse"><stop offset="0" stop-color="#df7878"/><stop offset=".46" stop-color="#c04040"/><stop offset=".68" stop-color="#b52b2b"/><stop offset=".75" stop-color="#b72f2f"/><stop offset=".82" stop-color="#be3d3d"/><stop offset=".91" stop-color="#cb5353"/><stop offset=".99" stop-color="#dc7373"/><stop offset="1" stop-color="#df7878"/></linearGradient><clipPath id="clippath-3"><rect class="cls-10" x="278.74" width="743.57" height="743.57"/></clipPath><clipPath id="clippath-5"><rect class="cls-10" y="232.32" width="743.57" height="743.57"/></clipPath><clipPath id="clippath-7"><rect class="cls-10" x="340.82" y="309.18" width="743.57" height="743.57"/></clipPath><clipPath id="clippath-9"><rect class="cls-10" x="607.52" y="177.89" width="743.57" height="743.57"/></clipPath></defs><g id="Layer_1-2"><g><g class="cls-8"><path class="cls-5" d="M856.88,485l-77.34,44.94c-1.7,.99-4.27,1.38-6.55,.94-6.83-1.28-12.88-3.52-17.91-6.43-5.75-3.32-10.16-7.5-12.87-12.11-2.3-3.96-6.22-7.65-11.74-10.84-21.34-12.32-57.33-10.84-75.09,4.35-10.68,9.3-10.7,21.78,.08,31.08,1.91,1.66,4.03,3.15,6.33,4.48,5.42,3.13,11.81,5.36,18.61,6.75,7.99,1.6,15.3,4.18,21.12,7.54,4.98,2.88,8.87,6.32,11.17,10.23,.67,1.38,.02,2.86-1.69,3.85l-71.66,41.64-67.74-39.11c-5.24-3.03-13.32-3.63-19.38-1.32-9.48,3.63-16.57,9.19-20.33,15.68-3.29,5.56-9.63,10.67-19.2,14.36-16.02,6.22-37.57,6.16-53.66-.06-2.79-1.09-5.31-2.29-7.57-3.6-19.08-11.02-19.14-28.9-.18-39.92,5.49-3.19,11.84-5.45,18.67-6.77,11.1-2.14,20.67-6.27,26.81-11.72,3.87-3.58,2.8-8.25-2.44-11.28l-73.93-42.69,217.52-126.41,218.95,126.41Zm-342.21,254.11c-5.42-3.13-11.76-5.38-18.51-6.74-8.06-1.58-15.34-4.12-21.13-7.47-2.28-1.31-4.32-2.75-6.1-4.3-4.01-3.52-2.9-8.25,2.31-11.28l67.21-39.06-75.27-43.46c-1.71-.99-4.19-1.43-6.46-.99-14.7,2.81-25.59,10.01-30.76,18.65-3.29,5.56-9.63,10.67-19.2,14.36-16.02,6.22-37.67,6.22-53.66-.05-2.79-1.09-5.31-2.29-7.57-3.6-19.08-11.02-19.14-28.9-.18-39.92,5.4-3.14,11.84-5.45,18.67-6.77,14.89-2.92,27.11-9.24,31.9-17.77,.75-1.32-.02-2.75-1.73-3.74l-74.6-43.07-217.43,126.36,218.86,126.36,73.45-42.69c5.11-2.97,13.28-3.63,19.37-1.32,2.73,1.04,5.28,2.24,7.61,3.59,5.69,3.28,10.08,7.4,12.8,11.93,2.3,3.96,6.22,7.76,11.65,10.89,21.34,12.32,57.42,10.89,75.19-4.4,10.77-9.24,10.7-21.78-.08-31.08-1.92-1.63-4.05-3.11-6.34-4.43m451.97-190.74l-73.46,42.69c-5.21,3.02-13.28,3.63-19.46,1.38-2.72-1.03-5.26-2.23-7.57-3.57-5.7-3.29-10.09-7.42-12.75-12-2.4-4.02-6.31-7.7-11.84-10.89-21.34-12.32-57.33-10.84-75,4.4-10.78,9.24-10.8,21.73-.02,31.02,1.91,1.66,4.04,3.15,6.35,4.49,5.44,3.14,11.86,5.39,18.6,6.74,7.98,1.57,15.14,4.1,20.85,7.4,2.32,1.34,4.39,2.8,6.19,4.38,4.1,3.58,3.09,8.25-2.12,11.28l-67.3,39.11,72.13,41.64c1.71,.99,4.28,1.38,6.56,.94,14.7-2.8,25.59-10.01,30.57-18.65,3.39-5.61,9.82-10.67,19.29-14.41,16.01-6.22,37.57-6.16,53.66,.05,2.74,1.08,5.22,2.27,7.45,3.56,19.14,11.05,19.39,28.97,.4,40.01-5.49,3.19-11.94,5.39-18.77,6.71-14.89,2.92-27.11,9.35-31.9,17.77-.66,1.38,.02,2.86,1.73,3.85l77.75,44.89,217.52-126.41-218.85-126.35Zm-173.7,268.83c-5.15-2.97-6.31-7.7-2.34-11.22,6.24-5.5,15.71-9.57,26.72-11.77,6.92-1.38,13.37-3.58,18.86-6.77,18.95-11.01,18.82-28.84-.31-39.88-2.27-1.31-4.82-2.53-7.63-3.63-15.99-6.27-37.55-6.33-53.56-.11-9.48,3.74-16,8.86-19.2,14.47-3.86,6.44-10.85,12.05-20.23,15.62-6.16,2.36-14.33,1.7-19.48-1.27l-67.74-39.11-71.66,41.64c-1.61,.94-2.46,2.42-1.69,3.74,2.26,3.94,6.13,7.4,11.13,10.29,5.83,3.36,13.17,5.93,21.26,7.53,6.74,1.35,13.11,3.57,18.52,6.69,2.3,1.33,4.42,2.82,6.33,4.47,10.78,9.29,10.85,21.84,.08,31.08-17.67,15.24-53.75,16.67-75.09,4.35-5.43-3.14-9.44-6.88-11.74-10.84-2.7-4.59-7.09-8.73-12.81-12.03-5.04-2.91-11.11-5.17-17.97-6.51-2.28-.44-4.85,.05-6.55,1.04l-77.24,44.89,218.85,126.35,217.43-126.36-73.93-42.69Z"/></g><g class="cls-7"><rect class="cls-12" x="647.34" y="348.63" width="209.54" height="58.48"/></g><path class="cls-6" d="M494.34,391.32l-73.93-42.69-.04,12.17,73.93,42.69c3.13,1.8,4.77,4.2,4.76,6.59l.03-12.16c0-2.4-1.64-4.79-4.76-6.59"/><path class="cls-6" d="M571.62,435.93c-5.24-3.03-13.32-3.63-19.38-1.32-9.48,3.63-16.57,9.19-20.33,15.68-3.29,5.56-9.63,10.67-19.2,14.36-16.01,6.22-37.57,6.16-53.66-.05-2.79-1.09-5.31-2.29-7.57-3.6-9.59-5.54-14.38-12.81-14.35-20.07l-.03,12.16c-.02,7.26,4.77,14.53,14.35,20.07,2.26,1.3,4.78,2.51,7.57,3.6,16.08,6.22,37.64,6.27,53.66,.05,9.57-3.68,15.91-8.8,19.2-14.36,3.76-6.49,10.85-12.05,20.33-15.68,6.06-2.31,14.14-1.71,19.38,1.32l67.74,39.11,.03-12.16-67.74-39.11Z"/><path class="cls-3" d="M711.01,433.4l-71.66,41.64-.04,12.16,71.66-41.64c1.26-.73,1.95-1.73,1.95-2.76l.03-12.16c0,1.03-.69,2.03-1.95,2.76"/><path class="cls-9" d="M637.94,222.22l-217.53,126.41,73.93,42.69c5.24,3.03,6.31,7.7,2.44,11.28-6.14,5.45-15.71,9.57-26.81,11.72-6.83,1.32-13.18,3.58-18.67,6.77-18.96,11.02-18.9,28.9,.18,39.91,2.26,1.3,4.78,2.51,7.57,3.6,16.08,6.22,37.64,6.27,53.66,.05,9.57-3.69,15.91-8.8,19.2-14.36,3.76-6.49,10.85-12.05,20.33-15.68,6.06-2.31,14.14-1.7,19.38,1.32l67.74,39.11,71.66-41.64c1.71-.99,2.36-2.48,1.69-3.85-2.3-3.91-6.19-7.36-11.17-10.23-5.82-3.36-13.13-5.94-21.12-7.54-6.81-1.39-13.2-3.62-18.61-6.75-2.3-1.33-4.43-2.82-6.33-4.47-10.78-9.3-10.76-21.78-.08-31.08,17.77-15.18,53.75-16.67,75.09-4.35,5.53,3.19,9.44,6.88,11.74,10.84,2.71,4.61,7.12,8.79,12.87,12.11,5.03,2.9,11.08,5.14,17.91,6.43,2.28,.44,4.84,.05,6.55-.93l77.34-44.94-218.95-126.41Z"/><path class="cls-3" d="M395.93,454.36c-4.8,8.53-17.01,14.85-31.9,17.77-6.83,1.32-13.28,3.63-18.67,6.77-9.43,5.48-14.15,12.66-14.17,19.84l-.04,12.16c.02-7.19,4.75-14.36,14.18-19.84,5.39-3.14,11.84-5.45,18.67-6.77,14.89-2.91,27.11-9.24,31.9-17.77,.2-.34,.29-.69,.29-1.04l.03-12.16c0,.35-.09,.7-.29,1.04"/><path class="cls-3" d="M471.25,572.96c-3.08,1.79-4.72,4.17-4.73,6.55l-.03,12.16c0-2.38,1.65-4.76,4.73-6.55l67.21-39.06,.04-12.17-67.21,39.06Z"/><polygon class="cls-6" points="102.17 533.9 102.13 546.07 320.99 672.42 321.02 660.26 102.17 533.9"/><g class="cls-4"><rect class="cls-2" x="320.99" y="614.86" width="208.15" height="57.56"/></g><path class="cls-9" d="M514.67,602.74c-5.42-3.13-11.76-5.38-18.51-6.74-8.06-1.58-15.34-4.12-21.13-7.47-2.28-1.31-4.32-2.75-6.1-4.3-4.01-3.52-2.9-8.25,2.31-11.28l67.21-39.06-75.27-43.46c-1.72-.99-4.19-1.43-6.46-.99-14.7,2.81-25.59,10.01-30.76,18.65-3.29,5.55-9.63,10.67-19.2,14.36-16.02,6.22-37.67,6.22-53.66-.05-2.79-1.09-5.31-2.29-7.57-3.6-19.08-11.02-19.14-28.9-.18-39.92,5.39-3.14,11.84-5.45,18.67-6.77,14.89-2.92,27.11-9.24,31.9-17.77,.75-1.32-.01-2.75-1.73-3.74l-74.6-43.07-217.43,126.36,218.86,126.35,73.45-42.69c5.11-2.97,13.28-3.63,19.37-1.32,2.73,1.04,5.28,2.24,7.61,3.59,5.69,3.29,10.08,7.4,12.8,11.93,2.3,3.96,6.22,7.76,11.65,10.89,21.34,12.32,57.42,10.89,75.19-4.4,10.77-9.24,10.7-21.78-.08-31.08-1.92-1.63-4.05-3.11-6.34-4.43"/><path class="cls-13" d="M818.54,488.02c-1.79-1.57-3.87-3.04-6.19-4.38-5.71-3.29-12.87-5.83-20.85-7.4-6.74-1.35-13.16-3.6-18.6-6.74-2.31-1.33-4.44-2.83-6.35-4.48-5.4-4.66-8.09-10.12-8.08-15.57l-.03,12.16c-.02,5.45,2.67,10.91,8.08,15.57,1.91,1.66,4.04,3.15,6.35,4.48,5.44,3.14,11.85,5.39,18.59,6.74,7.98,1.56,15.14,4.1,20.85,7.4,2.32,1.34,4.39,2.8,6.19,4.38,1.72,1.49,2.54,3.18,2.53,4.85l.03-12.16c0-1.68-.82-3.36-2.53-4.86"/><path class="cls-13" d="M938.77,551.54c-2.23-1.29-4.71-2.48-7.45-3.56-16.08-6.21-37.64-6.27-53.66-.05-9.48,3.74-15.91,8.8-19.29,14.41-4.99,8.64-15.87,15.84-30.57,18.65-2.27,.44-4.84,.06-6.56-.93l-72.13-41.64-.03,12.16,72.12,41.64c1.72,.99,4.28,1.38,6.56,.93,14.7-2.8,25.59-10.01,30.57-18.65,3.39-5.61,9.82-10.67,19.29-14.41,16.02-6.22,37.57-6.16,53.66,.05,2.74,1.08,5.22,2.27,7.45,3.56,9.67,5.58,14.52,12.92,14.5,20.24l.04-12.16c.02-7.32-4.83-14.66-14.5-20.24"/><path class="cls-13" d="M890.23,619.88c-1.28-.74-1.98-1.76-1.98-2.8l-.04,12.16c0,1.04,.7,2.06,1.98,2.8l77.75,44.89,.03-12.16-77.75-44.89Z"/><polygon class="cls-11" points="967.97 664.77 967.94 676.93 1185.46 550.52 1185.5 538.35 967.97 664.77"/><path class="cls-1" d="M966.64,412l-73.46,42.69c-5.21,3.02-13.28,3.63-19.46,1.38-2.72-1.03-5.26-2.23-7.57-3.57-5.7-3.29-10.09-7.42-12.75-12-2.4-4.02-6.31-7.7-11.84-10.89-21.34-12.32-57.33-10.84-75,4.4-10.78,9.24-10.8,21.73-.02,31.03,1.91,1.66,4.04,3.15,6.35,4.48,5.44,3.14,11.86,5.39,18.6,6.74,7.98,1.57,15.14,4.1,20.85,7.4,2.32,1.34,4.39,2.8,6.19,4.38,4.1,3.58,3.09,8.25-2.12,11.28l-67.3,39.11,72.13,41.64c1.72,.99,4.28,1.38,6.56,.94,14.7-2.81,25.59-10.01,30.57-18.65,3.39-5.61,9.82-10.67,19.29-14.41,16.01-6.22,37.57-6.16,53.66,.05,2.74,1.08,5.22,2.27,7.45,3.56,19.14,11.05,19.39,28.97,.4,40.01-5.49,3.19-11.94,5.39-18.77,6.71-14.89,2.92-27.11,9.35-31.9,17.77-.66,1.38,.02,2.86,1.73,3.85l77.75,44.89,217.52-126.41-218.85-126.36Z"/><path class="cls-3" d="M836.17,651.07c-5.49,3.19-11.94,5.39-18.86,6.77-11.01,2.2-20.48,6.27-26.72,11.77-1.6,1.42-2.37,3.04-2.37,4.66l-.03,12.16c0-1.62,.77-3.24,2.37-4.66,6.24-5.5,15.71-9.57,26.72-11.77,6.92-1.38,13.37-3.58,18.86-6.77,9.4-5.46,14.1-12.6,14.13-19.76l.03-12.17c-.02,7.16-4.73,14.3-14.13,19.76"/><path class="cls-6" d="M631.92,671.53c-1.91-1.66-4.03-3.15-6.33-4.47-5.41-3.12-11.78-5.34-18.52-6.69-8.09-1.6-15.43-4.17-21.26-7.53-5-2.88-8.87-6.35-11.13-10.29-.2-.34-.29-.69-.29-1.04l-.04,12.16c0,.35,.09,.7,.29,1.04,2.26,3.94,6.14,7.4,11.13,10.29,5.83,3.36,13.17,5.93,21.26,7.53,6.74,1.35,13.11,3.57,18.52,6.69,2.3,1.33,4.42,2.82,6.33,4.47,5.43,4.68,8.14,10.18,8.13,15.67l.03-12.17c.02-5.49-2.7-10.99-8.12-15.66"/><polygon class="cls-6" points="430.59 723.52 430.56 735.68 649.41 862.04 649.45 849.87 430.59 723.52"/><polygon class="cls-3" points="649.45 849.87 649.41 862.04 866.84 735.68 866.88 723.52 649.45 849.87"/><path class="cls-9" d="M792.94,680.83c-5.15-2.97-6.31-7.7-2.34-11.22,6.24-5.5,15.71-9.57,26.72-11.77,6.92-1.38,13.37-3.57,18.86-6.77,18.95-11.01,18.82-28.84-.31-39.88-2.27-1.31-4.82-2.53-7.63-3.63-15.99-6.27-37.55-6.33-53.56-.11-9.48,3.74-16,8.86-19.2,14.47-3.86,6.44-10.85,12.05-20.23,15.62-6.16,2.37-14.33,1.71-19.48-1.26l-67.74-39.11-71.66,41.64c-1.61,.94-2.46,2.42-1.69,3.74,2.26,3.94,6.13,7.41,11.13,10.29,5.83,3.36,13.17,5.93,21.26,7.53,6.74,1.35,13.11,3.57,18.52,6.69,2.3,1.33,4.42,2.82,6.33,4.48,10.78,9.3,10.85,21.84,.08,31.08-17.67,15.24-53.75,16.67-75.09,4.35-5.43-3.14-9.44-6.88-11.74-10.84-2.7-4.59-7.09-8.73-12.81-12.03-5.04-2.91-11.11-5.17-17.97-6.51-2.28-.44-4.85,.06-6.55,1.05l-77.24,44.89,218.85,126.35,217.43-126.36-73.93-42.69Z"/></g></g></svg>