<svg width="99" height="60" viewBox="0 0 99 60" fill="none" xmlns="http://www.w3.org/2000/svg">
<path d="M15.9619 33.594L16.0284 42.5555C16.0311 42.9172 16.1779 43.263 16.4365 43.5169C16.695 43.7708 17.0442 43.9119 17.4072 43.9093L24.7977 43.8559C24.9774 43.8546 25.1551 43.8181 25.3207 43.7483C25.4862 43.6786 25.6363 43.577 25.7625 43.4495C25.8886 43.3219 25.9883 43.1708 26.0559 43.0049C26.1234 42.8389 26.1575 42.6613 26.1562 42.4822L26.0351 25.7944C26.0323 25.4327 25.8855 25.0868 25.6268 24.833C25.3682 24.5791 25.019 24.438 24.656 24.4406C22.3364 24.4579 20.0169 24.474 17.6976 24.489C17.4764 24.4904 17.2589 24.5453 17.0638 24.6489C16.8686 24.7525 16.7015 24.9017 16.5769 25.0837C16.1079 25.7676 15.6122 26.4342 15.0168 27.009C14.2494 27.7482 13.2901 28.3326 12.232 28.4676C9.88955 28.7679 7.14063 26.3421 6.76741 24.0893C6.44574 22.1454 7.03651 20.1114 7.94494 18.4268C8.23567 17.8868 8.58294 17.3806 8.95184 16.89C9.35101 16.3596 9.72356 15.5736 10.2262 15.1533C10.5256 14.9024 10.971 14.9491 11.2574 15.2163C11.762 15.6883 12.7446 15.9177 13.3789 15.4719C14.1037 14.963 14.0605 13.898 13.9407 13.0225C15.2906 12.4432 16.3715 11.3778 16.9677 10.0391C13.3274 10.0096 9.87458 12.1822 7.86544 15.2077C6.06354 17.9213 5.33939 21.2232 5.37897 24.4466C5.39594 25.8326 5.59985 27.2258 6.11078 28.5216C6.69755 30.008 7.63393 30.8606 8.7456 31.9359C8.7456 31.9359 11.3941 34.495 15.9638 33.5934" fill="#BC2327"/>
<path d="M37.0891 43.1958L29.3699 43.2518C29.0935 43.2537 28.8276 43.1462 28.6307 42.9528C28.4338 42.7594 28.3221 42.496 28.3201 42.2205L28.1265 15.6414C28.1255 15.5051 28.1514 15.3698 28.2029 15.2434C28.2543 15.117 28.3303 15.002 28.4263 14.9048C28.5224 14.8077 28.6367 14.7303 28.7628 14.6772C28.8888 14.6241 29.0241 14.5963 29.161 14.5953L36.8809 14.5396C37.1573 14.5376 37.4232 14.6452 37.62 14.8386C37.8169 15.032 37.9286 15.2954 37.9307 15.5708L38.1239 42.1496C38.125 42.286 38.099 42.4213 38.0476 42.5477C37.9961 42.6742 37.9202 42.7892 37.8241 42.8864C37.728 42.9836 37.6136 43.0609 37.4875 43.114C37.3614 43.1671 37.226 43.1948 37.0891 43.1958Z" fill="white"/>
<path d="M49.3107 43.6785L41.483 43.7351C41.3461 43.7361 41.2104 43.7103 41.0835 43.659C40.9566 43.6077 40.8411 43.532 40.7436 43.4363C40.6461 43.3405 40.5685 43.2265 40.5152 43.1009C40.4618 42.9752 40.4339 42.8403 40.4329 42.7039L40.1704 6.60777C40.1684 6.3323 40.2762 6.0673 40.4702 5.87105C40.6642 5.67479 40.9285 5.56337 41.2049 5.56127L49.0342 5.50491C49.1711 5.50391 49.3069 5.52978 49.4338 5.58107C49.5606 5.63235 49.6761 5.70803 49.7736 5.80379C49.8712 5.89956 49.9488 6.01352 50.0021 6.13918C50.0554 6.26484 50.0834 6.39974 50.0844 6.53617L50.3472 42.632C50.3491 42.9075 50.2412 43.1725 50.0471 43.3687C49.8531 43.5649 49.5888 43.6764 49.3123 43.6785" fill="#264921"/>
<path d="M52.3481 3.8233C52.3481 3.82695 52.5697 34.2748 52.5697 34.2748C52.5697 34.2748 52.729 35.8441 56.3285 34.5732C56.3285 34.5732 51.4813 31.4605 55.7554 27.4173C55.7554 27.4173 54.0646 33.4836 58.0605 34.1465L61.4258 33.9477C61.4258 33.9477 65.0426 34.9242 66.3539 38.6157C66.3539 38.6157 66.8638 41.9326 65.4857 43.3261L68.8869 43.3016L68.8686 40.8115C68.8686 40.8115 70.4872 39.0701 68.8294 35.3813L67.2028 31.2424C67.2028 31.2424 66.9772 28.8941 66.9769 28.8921C66.9822 28.9435 68.0507 27.8556 68.1112 27.7525C68.5074 27.0779 68.7369 26.3072 68.9052 25.5491C69.1134 24.6096 68.8453 23.5207 69.2169 22.5905C69.8509 21.004 70.1306 22.9721 70.2434 23.6344C70.4164 24.6532 70.5895 25.6717 70.7627 26.69C70.9529 27.8078 71.143 28.9255 71.3328 30.0431C71.5148 31.1128 71.9425 32.2534 72.9295 32.8677C73.8559 33.4435 75.4575 34.1058 76.346 33.1153C76.8489 32.5541 77.0725 31.7562 77.4886 31.1264L79.7033 27.7869C79.8543 27.5592 80.5173 27.5111 80.801 27.3683C81.2334 27.1488 81.5993 26.8077 81.902 26.4338C82.3953 25.8265 82.729 25.0979 82.9844 24.3647C83.1175 23.9868 83.6916 20.7183 83.7206 20.7126C83.7239 20.7126 94.9461 18.4618 94.0656 8.36138C94.0656 8.36138 92.0545 16.3217 85.7829 14.5569C85.7829 14.5569 89.9785 11.3554 88.314 7.80912C88.314 7.80912 88.1809 13.1965 82.89 11.9196C82.89 11.9196 81.1682 10.5916 79.2715 12.092L72.2861 8.70779L63.0677 2.8431C62.0093 1.99614 60.9542 0.887309 59.7909 0.195492C58.7368 -0.430689 57.7795 0.601569 56.9262 1.13062C56.0521 1.67272 55.1582 2.18177 54.2445 2.65779C53.9262 2.82353 52.3485 3.41524 52.3521 3.8243" fill="#BC2327"/>
<path d="M53.7241 5.02592L55.8197 3.88791L57.3073 3.08041C58.0238 2.69157 58.7928 1.95003 59.688 2.29611C60.4051 2.57356 60.9743 3.07842 61.5886 3.52262C62.9312 4.49222 64.3728 5.32326 65.7799 6.19508C67.0632 6.99065 68.3512 7.7786 69.6352 8.57317C70.1674 8.90466 70.7209 9.23615 71.2651 9.55935C71.804 9.87791 72.4 10.156 72.8917 10.5422C73.064 10.6778 73.5669 11.1492 73.2612 11.3776C73.1615 11.4518 73.0211 11.4038 72.908 11.3534C71.2955 10.6387 69.7267 9.82985 68.2098 8.93118C67.7576 8.66223 67.3086 8.38864 66.8626 8.11041C65.78 7.43727 64.6989 6.76115 63.6194 6.08204C63.346 5.91033 62.9435 5.67331 62.6192 5.84999C62.3614 5.99154 62.2735 6.33098 62.3767 6.59452C62.1012 6.40689 61.7679 6.22988 61.4785 6.03331C61.1632 5.81652 60.8483 5.59917 60.5338 5.38127C59.9684 4.99044 59.3553 4.49918 58.6541 4.33841C57.9732 4.18261 57.4829 4.53133 56.8911 4.79752L54.3089 5.96104C54.3089 5.96104 53.4753 5.88082 53.7204 5.02492" fill="#FDFEFF"/>
<path d="M10.8396 52.217C10.8396 52.9737 10.6439 53.6286 10.2525 54.1818C9.8611 54.7349 9.30903 55.1628 8.5963 55.4653C7.88334 55.7683 7.04509 55.9197 6.08155 55.9194C5.43845 55.9194 4.8498 55.8525 4.31558 55.7186C3.78136 55.5846 3.31567 55.3955 2.9185 55.151L3.04124 54.3555C3.2578 54.5012 3.48983 54.6227 3.73313 54.7178C3.98533 54.8159 4.2466 54.8891 4.51317 54.9362C4.79666 54.9865 5.0841 55.0113 5.37204 55.0105C5.90958 55.0105 6.38858 54.9 6.80903 54.679C7.22815 54.4591 7.5738 54.1221 7.80362 53.7094C8.046 53.2849 8.16719 52.7668 8.16719 52.155C8.16719 51.445 8.02405 50.828 7.73776 50.304C7.46336 49.7929 7.04628 49.372 6.53693 49.0921C6.02312 48.8068 5.41861 48.6642 4.72339 48.6642H4.03084V58.513C4.02672 58.6338 4.06377 58.7524 4.13595 58.8495C4.20581 58.9396 4.31669 58.9963 4.46859 59.0195L5.23998 59.1243C5.39166 59.1534 5.49977 59.2044 5.5643 59.2771C5.62883 59.3498 5.66088 59.4531 5.66043 59.587C5.66229 59.6435 5.65128 59.6997 5.62824 59.7514C5.60519 59.8031 5.57071 59.8489 5.52738 59.8854C5.43989 59.9613 5.30218 59.9987 5.11557 59.9987H0.543463C0.35652 59.9987 0.218807 59.9613 0.131324 59.8854C0.0883338 59.8487 0.0542167 59.8028 0.0315221 59.7511C0.00882744 59.6995 -0.00185802 59.6434 0.000264191 59.587C0.000264191 59.3603 0.12578 59.209 0.376811 59.1332L0.875768 59.0195C0.998728 58.9897 1.11113 58.9269 1.20076 58.8379C1.27943 58.749 1.32034 58.6331 1.31485 58.5147V49.2578C1.32036 49.1395 1.27944 49.0237 1.20076 48.935C1.11145 48.8455 0.99931 48.782 0.876434 48.7513L0.377477 48.638C0.126224 48.5624 0.000708358 48.411 0.000930117 48.1838C-0.00185168 48.1269 0.00851973 48.0702 0.0312439 48.018C0.0539682 47.9657 0.0884373 47.9194 0.13199 47.8825C0.219473 47.8099 0.357186 47.7734 0.544129 47.7734H4.79325C6.07257 47.7734 7.16207 47.9642 8.06175 48.3456C8.96142 48.727 9.64887 49.2539 10.1241 49.9261C10.6002 50.5984 10.8383 51.3625 10.8383 52.2184" fill="white"/>
<path d="M21.548 58.513C21.5424 58.6314 21.5832 58.7473 21.6618 58.8362C21.7376 58.9177 21.8485 58.9789 21.9944 59.0195L22.4851 59.1332C22.7363 59.2088 22.8618 59.3601 22.8616 59.587C22.8637 59.6434 22.853 59.6995 22.8304 59.7511C22.8077 59.8028 22.7735 59.8487 22.7306 59.8854C22.6431 59.9613 22.5054 59.9987 22.3187 59.9987H18.061C17.8797 59.9987 17.7453 59.9613 17.6578 59.8854C17.6145 59.8489 17.58 59.8031 17.557 59.7514C17.5339 59.6997 17.5229 59.6435 17.5248 59.587C17.5248 59.3603 17.6474 59.209 17.8927 59.1332L18.3916 59.0195C18.538 58.9791 18.6476 58.918 18.7206 58.8362C18.7966 58.746 18.8357 58.6306 18.83 58.513V49.2578C18.8356 49.1402 18.7965 49.0249 18.7206 48.9346C18.6474 48.8535 18.5378 48.7924 18.3916 48.7513L17.8927 48.638C17.6476 48.5624 17.525 48.411 17.5248 48.1838C17.5223 48.1268 17.533 48.07 17.5561 48.0177C17.5791 47.9655 17.6139 47.9192 17.6578 47.8825C17.7452 47.81 17.8796 47.7737 18.061 47.7734H22.3187C22.5054 47.7734 22.6431 47.8099 22.7306 47.8825C22.7741 47.9194 22.8085 47.9657 22.8313 48.018C22.854 48.0702 22.8644 48.127 22.8616 48.1838C22.8616 48.411 22.7361 48.5624 22.4851 48.638L21.9944 48.7513C21.8485 48.792 21.7376 48.8531 21.6618 48.9346C21.5833 49.0236 21.5425 49.1395 21.548 49.2578V58.513Z" fill="white"/>
<path d="M40.7905 52.217C40.7905 52.9737 40.5948 53.6286 40.2034 54.1818C39.812 54.7349 39.2599 55.1628 38.5472 55.4653C37.8342 55.7683 36.9958 55.9197 36.0321 55.9194C35.389 55.9194 34.8004 55.8525 34.2664 55.7186C33.7324 55.5846 33.2668 55.3955 32.8694 55.151L32.9921 54.3555C33.2086 54.5012 33.4405 54.6227 33.6837 54.7178C33.9359 54.8159 34.1971 54.8891 34.4637 54.9362C34.7472 54.9864 35.0346 55.0113 35.3226 55.0105C35.8601 55.0105 36.3391 54.9 36.7596 54.679C37.1788 54.4593 37.5245 54.1223 37.7542 53.7094C37.9965 53.2849 38.1178 52.7668 38.1181 52.155C38.1181 51.445 37.9749 50.828 37.6886 50.304C37.4146 49.7922 36.9976 49.3706 36.4881 49.0901C35.9739 48.8048 35.3694 48.6622 34.6746 48.6622H33.982V58.513C33.9779 58.6338 34.015 58.7524 34.0871 58.8495C34.157 58.9396 34.2679 58.9963 34.4198 59.0195L35.1912 59.1243C35.3429 59.1534 35.4509 59.2044 35.5152 59.2771C35.5795 59.3498 35.6115 59.4531 35.6113 59.587C35.6134 59.6434 35.6027 59.6995 35.58 59.7511C35.5573 59.8028 35.5232 59.8487 35.4802 59.8854C35.3924 59.9613 35.255 59.9987 35.0684 59.9987H30.494C30.3074 59.9987 30.1697 59.9613 30.0822 59.8854C30.0392 59.8487 30.0051 59.8028 29.9824 59.7511C29.9597 59.6995 29.949 59.6434 29.9511 59.587C29.9511 59.3603 30.0765 59.209 30.3273 59.1332L30.8263 59.0195C30.9492 58.9891 31.0613 58.9257 31.1506 58.8362C31.2293 58.7473 31.2702 58.6314 31.2647 58.513V49.2578C31.2702 49.1395 31.2293 49.0237 31.1506 48.935C31.0612 48.8456 30.9491 48.7821 30.8263 48.7513L30.3273 48.638C30.0765 48.5624 29.9511 48.411 29.9511 48.1838C29.9483 48.1269 29.9587 48.0702 29.9814 48.018C30.0042 47.9657 30.0386 47.9194 30.0822 47.8825C30.1697 47.8099 30.3074 47.7734 30.494 47.7734H34.7441C36.0234 47.7734 37.1128 47.9642 38.0123 48.3456C38.9117 48.727 39.5992 49.2539 40.0746 49.9261C40.5503 50.5984 40.7884 51.3625 40.7888 52.2184" fill="white"/>
<path d="M49.6327 47.772H55.7489C55.9706 47.772 56.1518 47.7442 56.2924 47.6888C56.4328 47.6337 56.5585 47.5797 56.6689 47.5273C56.7814 47.4747 56.9043 47.4478 57.0285 47.4488C57.2281 47.4488 57.3786 47.4954 57.4799 47.5886C57.5817 47.6818 57.6625 47.8419 57.7207 48.0686L58.3079 50.872C58.3431 51.0408 58.3308 51.179 58.2726 51.2867C58.2144 51.3945 58.1123 51.4601 57.9659 51.483C57.8463 51.5138 57.7197 51.503 57.607 51.4525C57.5019 51.4034 57.4137 51.303 57.3442 51.1515C57.0399 50.4763 56.7799 49.964 56.5642 49.6144C56.3484 49.2648 56.1322 49.0262 55.9155 48.8987C55.6993 48.7705 55.4332 48.7064 55.1172 48.7064H54.0484V58.5128C54.0484 58.6468 54.0862 58.7545 54.1618 58.836C54.2512 58.9256 54.3635 58.989 54.4865 59.0194L54.9855 59.1331C55.2369 59.2086 55.3626 59.3599 55.3623 59.5869C55.3623 59.8607 55.1814 59.9975 54.8195 59.9973H50.5617C50.3748 59.9973 50.2377 59.9598 50.1499 59.8839C50.1069 59.8472 50.0727 59.8014 50.05 59.7497C50.0272 59.698 50.0165 59.6419 50.0185 59.5855C50.0185 59.3588 50.1441 59.2075 50.3954 59.1317L50.8943 59.018C51.0173 58.9875 51.1295 58.9241 51.219 58.8347C51.2973 58.7457 51.338 58.6298 51.3324 58.5115V48.7064H50.2633C49.9529 48.7064 49.6885 48.7705 49.4703 48.8987C49.2521 49.0269 49.0346 49.2654 48.8177 49.6144C48.6015 49.9638 48.3415 50.4761 48.0377 51.1515C47.9681 51.303 47.88 51.4034 47.7749 51.4525C47.6622 51.503 47.5356 51.5138 47.416 51.483C47.2753 51.4601 47.1748 51.3945 47.1133 51.2867C47.0517 51.179 47.0387 51.0408 47.074 50.872L47.6611 48.0686C47.7194 47.8419 47.7997 47.6819 47.9019 47.5886C48.0042 47.4954 48.1546 47.4488 48.3533 47.4488C48.4775 47.4478 48.6002 47.4747 48.7126 47.5273C48.8235 47.5797 48.9491 47.6335 49.0895 47.6888C49.2298 47.744 49.4109 47.7717 49.6327 47.772Z" fill="white"/>
<path d="M67.4472 59.5869C67.4492 59.6432 67.4385 59.6993 67.4158 59.751C67.3931 59.8026 67.359 59.8485 67.3161 59.8852C67.2283 59.9611 67.0909 59.9986 66.904 59.9986H64.1527C63.9654 59.9986 63.8267 59.9628 63.7362 59.8895C63.6914 59.8535 63.6558 59.8074 63.6322 59.7551C63.6086 59.7027 63.5978 59.6455 63.6005 59.5882C63.5989 59.5057 63.6268 59.4253 63.6794 59.3615C63.7319 59.2972 63.8225 59.2331 63.9511 59.1692L64.2402 59.0558C64.4016 58.9802 64.5395 58.8624 64.6393 58.7151C64.7296 58.5754 64.8332 58.328 64.95 57.9729L67.7459 49.4672C67.8272 49.2113 67.8504 49.0266 67.8154 48.913C67.7803 48.7994 67.6606 48.7077 67.4561 48.6378C67.2928 48.5851 67.1774 48.5228 67.1102 48.4499C67.0425 48.3746 67.0067 48.2761 67.0104 48.1751C67.0072 48.1181 67.0179 48.0612 67.0416 48.0092C67.0653 47.9573 67.1013 47.9118 67.1464 47.8767C67.2366 47.8068 67.3756 47.772 67.5626 47.772H71.8736C72.0608 47.772 72.1979 47.8068 72.2857 47.8767C72.3735 47.9467 72.4171 48.0458 72.4171 48.1751C72.4206 48.2755 72.3862 48.3736 72.3206 48.4499C72.2561 48.5228 72.1483 48.5825 71.9963 48.6292C71.839 48.6816 71.7452 48.7512 71.7162 48.8387C71.6873 48.9262 71.7042 49.0658 71.7684 49.2577L74.7289 58.1562C74.8225 58.4528 74.9223 58.6697 75.0283 58.8069C75.1331 58.9438 75.2854 59.0439 75.4837 59.1079C75.6591 59.1722 75.776 59.2392 75.8343 59.3088C75.8957 59.3887 75.9267 59.4877 75.9218 59.5882C75.9237 59.645 75.9125 59.7015 75.889 59.7532C75.8654 59.805 75.8302 59.8506 75.7861 59.8866C75.6952 59.9625 75.5569 59.9999 75.3699 59.9999H71.5043C71.3174 59.9999 71.1787 59.9625 71.0882 59.8866C71.0101 59.8178 70.9619 59.7216 70.9537 59.6181C70.9455 59.5146 70.978 59.412 71.0443 59.332C71.1058 59.2657 71.2033 59.2113 71.338 59.1705L71.837 59.0658C71.9887 59.0194 72.0615 58.9437 72.0555 58.8387C72.0495 58.7337 72.0086 58.5649 71.9328 58.3322L68.8486 48.8225L69.1376 48.6653L66.1319 57.8317C66.0561 58.0759 66.0166 58.2724 66.0135 58.4214C66.01 58.4891 66.0202 58.5569 66.0435 58.6206C66.0668 58.6843 66.1028 58.7427 66.1492 58.7923C66.2428 58.8913 66.3918 58.9816 66.5963 59.0631L67.0693 59.1768C67.1726 59.2116 67.2679 59.2664 67.3497 59.3383C67.3824 59.3706 67.4079 59.4095 67.4246 59.4523C67.4412 59.4952 67.4485 59.541 67.4462 59.5869M66.4123 55.02H71.6088L71.642 55.9541H66.3431L66.4123 55.02Z" fill="white"/>
<path d="M86.3231 59.587C86.3253 59.6425 86.3146 59.6978 86.2918 59.7486C86.269 59.7993 86.2347 59.844 86.1917 59.8794C86.103 59.9527 85.9657 59.9922 85.7799 59.9977H82.8792C82.6926 59.9921 82.5536 59.9526 82.4631 59.8794C82.419 59.8447 82.3837 59.8002 82.3601 59.7494C82.3365 59.6986 82.3253 59.6429 82.3274 59.587C82.3274 59.3775 82.4588 59.2228 82.7216 59.1229L83.1247 59.0009C83.3935 58.9017 83.576 58.7912 83.6723 58.6694C83.7687 58.5468 83.817 58.3492 83.817 58.0754V50.5228C83.817 50.3309 83.7937 50.1753 83.7471 50.0557C83.7005 49.9362 83.5923 49.7717 83.4225 49.5624L82.6863 48.6538C82.6096 48.5602 82.5421 48.4594 82.4847 48.3528C82.4512 48.2863 82.4334 48.2131 82.4325 48.1387C82.4299 48.0871 82.4396 48.0356 82.461 47.9885C82.4823 47.9414 82.5147 47.9 82.5553 47.8679C82.6369 47.8042 82.7477 47.7723 82.8879 47.7721H84.8771C85.052 47.7721 85.1984 47.8026 85.3148 47.8636C85.4312 47.9246 85.5513 48.0399 85.6741 48.2087L92.5008 57.1685L92.0777 58.1987V49.6934C92.0777 49.4255 92.034 49.2304 91.9466 49.108C91.8593 48.9855 91.6722 48.8721 91.3855 48.7675L90.9826 48.6452C90.7199 48.5347 90.5884 48.38 90.5881 48.1811C90.5855 48.1238 90.5964 48.0667 90.62 48.0144C90.6437 47.9621 90.6794 47.9161 90.7242 47.8801C90.8143 47.8072 90.9504 47.7708 91.1313 47.7708H94.0319C94.2192 47.7708 94.3589 47.8072 94.4527 47.8801C94.4986 47.9154 94.5353 47.9612 94.5597 48.0136C94.5842 48.066 94.5956 48.1234 94.5931 48.1811C94.5931 48.385 94.458 48.5391 94.1899 48.6452L93.7865 48.7675C93.5177 48.8608 93.3352 48.9685 93.2389 49.0907C93.1427 49.213 93.0945 49.4138 93.0942 49.6934V57.4834C93.0917 57.6466 93.1093 57.8095 93.1468 57.9683C93.1823 58.1058 93.2449 58.2349 93.3307 58.3482L93.8653 59.0556C93.9762 59.1955 94.0449 59.3031 94.0715 59.3785C94.0973 59.4515 94.1105 59.5282 94.1108 59.6056C94.1126 59.6589 94.1025 59.7121 94.0813 59.7611C94.0601 59.8102 94.0282 59.854 93.988 59.8893C93.9065 59.9622 93.7864 59.9987 93.6291 59.9987H91.307C91.0262 59.9987 90.886 59.8851 90.8862 59.6579C90.8863 59.5665 90.8669 59.4761 90.8293 59.3927C90.7909 59.3083 90.6872 59.1496 90.518 58.9167L83.9913 50.3133L84.8411 49.7282V58.085C84.8411 58.3414 84.8855 58.5306 84.9742 58.6529C85.0629 58.7751 85.2464 58.892 85.5247 59.0036L85.9282 59.1256C86.191 59.2303 86.3224 59.385 86.3224 59.5896" fill="white"/>
<path d="M95.417 46.96C95.417 46.6341 95.514 46.3155 95.6957 46.0445C95.8773 45.7736 96.1356 45.5624 96.4377 45.4376C96.7398 45.3129 97.0723 45.2802 97.393 45.3438C97.7138 45.4073 98.0084 45.5643 98.2397 45.7947C98.4709 46.0251 98.6285 46.3187 98.6923 46.6383C98.7561 46.9579 98.7234 47.2893 98.5983 47.5904C98.4732 47.8915 98.2613 48.1488 97.9895 48.33C97.7176 48.5111 97.3979 48.6077 97.0709 48.6078C96.6325 48.6074 96.2121 48.4336 95.902 48.1247C95.592 47.8158 95.4175 47.3969 95.417 46.96ZM95.1416 46.96C95.1416 47.3402 95.2547 47.712 95.4667 48.0281C95.6787 48.3443 95.9801 48.5907 96.3326 48.7363C96.6851 48.8818 97.073 48.9199 97.4473 48.8457C97.8215 48.7715 98.1653 48.5884 98.4351 48.3195C98.7049 48.0506 98.8887 47.708 98.9631 47.3351C99.0376 46.9621 98.9994 46.5755 98.8533 46.2242C98.7073 45.8729 98.46 45.5726 98.1428 45.3614C97.8255 45.1501 97.4525 45.0374 97.0709 45.0374C96.5594 45.0379 96.069 45.2406 95.7073 45.6011C95.3456 45.9615 95.1421 46.4502 95.1416 46.96Z" fill="white"/>
<path d="M96.6619 46.257H96.9975C97.1722 46.257 97.2766 46.2594 97.3116 46.264C97.3739 46.2719 97.4314 46.3015 97.4739 46.3475C97.5138 46.3963 97.5342 46.4581 97.5311 46.5209C97.5331 46.5772 97.5181 46.6328 97.4879 46.6804C97.4587 46.7227 97.4162 46.7542 97.3671 46.7699C97.3154 46.7875 97.1865 46.7963 96.9803 46.796H96.6619V46.257ZM96.2295 45.8977V48.0222H96.6619V47.1361H96.7487C96.8218 47.133 96.895 47.141 96.9656 47.16C97.0153 47.1787 97.0597 47.209 97.095 47.2485C97.1774 47.3475 97.253 47.4518 97.3215 47.5608L97.6332 48.0232H98.1478L97.8877 47.6085C97.816 47.4868 97.734 47.3715 97.6425 47.2638C97.5748 47.1934 97.4972 47.1334 97.412 47.0854C97.5994 47.0582 97.74 46.9928 97.8338 46.8892C97.9297 46.7803 97.9802 46.6389 97.9748 46.4941C97.9768 46.3758 97.9445 46.2596 97.8817 46.1593C97.8243 46.0657 97.737 45.994 97.6339 45.9557C97.5308 45.9177 97.3651 45.8987 97.1369 45.8987L96.2295 45.8977Z" fill="white"/>
</svg>
