<svg width="613" height="93" viewBox="0 0 613 93" fill="none" xmlns="http://www.w3.org/2000/svg">
<path d="M67 44.6242C67 49.3283 65.7904 53.3995 63.3711 56.8386C60.9519 60.277 57.5395 62.9371 53.1341 64.8176C48.7272 66.7012 43.546 67.6424 37.5903 67.6406C33.6153 67.6406 29.9768 67.2247 26.6748 66.3923C23.3727 65.5592 20.4943 64.3837 18.0394 62.8637L18.798 57.9184C20.1366 58.8242 21.5708 59.5795 23.0746 60.1707C24.6335 60.7805 26.2484 61.2356 27.8961 61.5284C29.6483 61.8411 31.425 61.9953 33.2048 61.9903C36.5274 61.9903 39.4881 61.3033 42.0869 59.9295C44.6775 58.5624 46.814 56.4674 48.2345 53.9018C49.7326 51.2629 50.4817 48.0421 50.4817 44.2387C50.4817 39.8249 49.597 35.9893 47.8274 32.7318C46.1313 29.5545 43.5533 26.9379 40.405 25.1978C37.2291 23.4242 33.4926 22.5378 29.1955 22.5378H24.9148V83.764C24.8893 84.515 25.1183 85.2522 25.5645 85.8559C25.9963 86.416 26.6816 86.7685 27.6205 86.9127L32.3885 87.5642C33.3261 87.7451 33.9943 88.0621 34.3932 88.5141C34.792 88.966 34.9901 89.6082 34.9873 90.4406C34.9988 90.7919 34.9308 91.1412 34.7884 91.4626C34.6459 91.784 34.4328 92.0688 34.165 92.2957C33.6242 92.7675 32.773 93 31.6195 93H3.35917C2.20366 93 1.35245 92.7675 0.811719 92.2957C0.545995 92.0675 0.335116 91.7822 0.194839 91.4608C0.0545628 91.14 -0.0114845 90.7913 0.00163298 90.4406C0.00163298 89.0313 0.777451 88.0908 2.32908 87.6195L5.41316 86.9127C6.17318 86.7274 6.86794 86.337 7.42195 85.7837C7.90821 85.2311 8.16107 84.5106 8.12714 83.7746V26.228C8.1612 25.4925 7.90827 24.7726 7.42195 24.2212C6.86992 23.6648 6.17678 23.2701 5.41727 23.0792L2.3332 22.3749C0.780196 21.9049 0.00437839 20.9637 0.00574909 19.5513C-0.0114453 19.1976 0.0526608 18.8451 0.19312 18.5206C0.33358 18.1955 0.546635 17.9076 0.815836 17.6782C1.35657 17.2269 2.20778 17 3.36328 17H29.6273C37.5348 17 44.269 18.1861 49.83 20.5572C55.3909 22.9282 59.6401 26.2037 62.5775 30.3825C65.5203 34.562 66.992 39.3121 66.992 44.6329" fill="#BC2327"/>
<path d="M133.876 83.764C133.841 84.5 134.093 85.2205 134.579 85.7732C135.048 86.2798 135.734 86.6603 136.636 86.9127L139.67 87.6195C141.223 88.0895 141.998 89.0301 141.997 90.4406C142.01 90.7913 141.944 91.14 141.804 91.4608C141.664 91.7822 141.453 92.0675 141.187 92.2957C140.646 92.7675 139.795 93 138.641 93H112.317C111.196 93 110.365 92.7675 109.824 92.2957C109.557 92.0688 109.343 91.784 109.201 91.4626C109.058 91.1412 108.99 90.7919 109.002 90.4406C109.002 89.0313 109.76 88.0908 111.277 87.6195L114.361 86.9127C115.266 86.6615 115.944 86.2817 116.395 85.7732C116.865 85.2125 117.107 84.4951 117.072 83.764V26.228C117.106 25.4969 116.865 24.7801 116.395 24.2187C115.943 23.7146 115.265 23.3347 114.361 23.0792L111.277 22.3749C109.761 21.9049 109.003 20.9637 109.002 19.5513C108.987 19.197 109.053 18.8439 109.196 18.5187C109.338 18.1942 109.553 17.9064 109.824 17.6782C110.365 17.2275 111.196 17.0019 112.317 17H138.641C139.795 17 140.646 17.2269 141.187 17.6782C141.456 17.9076 141.669 18.1955 141.81 18.5206C141.95 18.8451 142.015 19.1982 141.997 19.5513C141.997 20.9637 141.221 21.9049 139.67 22.3749L136.636 23.0792C135.734 23.3323 135.048 23.7121 134.579 24.2187C134.094 24.772 133.842 25.4925 133.876 26.228V83.764Z" fill="#BC2327"/>
<path d="M253 44.6242C253 49.3283 251.79 53.3995 249.371 56.8386C246.952 60.277 243.54 62.9371 239.134 64.8176C234.727 66.7012 229.545 67.6424 223.589 67.6406C219.614 67.6406 215.976 67.2247 212.675 66.3923C209.375 65.5592 206.497 64.3837 204.04 62.8637L204.799 57.9184C206.137 58.8242 207.57 59.5795 209.074 60.1707C210.632 60.7805 212.247 61.2356 213.895 61.5284C215.647 61.8405 217.423 61.9953 219.203 61.9903C222.526 61.9903 225.486 61.3033 228.085 59.9295C230.676 58.5637 232.813 56.4687 234.233 53.9018C235.731 51.2629 236.48 48.0421 236.482 44.2387C236.482 39.8249 235.597 35.9893 233.827 32.7318C232.134 29.5501 229.556 26.9292 226.407 25.1854C223.229 23.4118 219.493 22.5253 215.198 22.5253H210.917V83.764C210.892 84.515 211.121 85.2522 211.567 85.8559C211.999 86.416 212.684 86.7685 213.623 86.9127L218.391 87.5642C219.329 87.7451 219.996 88.0621 220.394 88.5141C220.791 88.966 220.989 89.6082 220.988 90.4406C221.001 90.7913 220.935 91.14 220.794 91.4608C220.654 91.7822 220.443 92.0675 220.178 92.2957C219.635 92.7675 218.786 93 217.632 93H189.358C188.205 93 187.354 92.7675 186.813 92.2957C186.547 92.0675 186.337 91.7822 186.196 91.4608C186.056 91.14 185.99 90.7913 186.003 90.4406C186.003 89.0313 186.778 88.0908 188.328 87.6195L191.412 86.9127C192.172 86.7237 192.865 86.3296 193.417 85.7732C193.903 85.2205 194.156 84.5 194.122 83.764V26.228C194.156 25.4925 193.903 24.7726 193.417 24.2212C192.864 23.6655 192.171 23.2707 191.412 23.0792L188.328 22.3749C186.778 21.9049 186.003 20.9637 186.003 19.5513C185.985 19.1976 186.05 18.8451 186.19 18.5206C186.331 18.1955 186.544 17.9076 186.813 17.6782C187.354 17.2269 188.205 17 189.358 17H215.628C223.535 17 230.268 18.1861 235.828 20.5572C241.387 22.9282 245.637 26.2037 248.575 30.3825C251.515 34.562 252.987 39.3121 252.989 44.6329" fill="#BC2327"/>
<path d="M307.78 17.0091H345.216C346.573 17.0091 347.683 16.8363 348.543 16.492C349.402 16.1495 350.172 15.8138 350.848 15.4881C351.536 15.1612 352.288 14.994 353.049 15.0002C354.27 15.0002 355.192 15.2898 355.812 15.8692C356.435 16.4485 356.929 17.4436 357.286 18.8528L360.88 36.2783C361.095 37.3276 361.02 38.1866 360.664 38.8561C360.307 39.5261 359.683 39.9339 358.786 40.0762C358.054 40.2677 357.279 40.2005 356.59 39.8866C355.946 39.5814 355.406 38.9574 354.981 38.0157C353.118 33.8187 351.527 30.6343 350.207 28.4613C348.886 26.2882 347.563 24.8051 346.236 24.0126C344.913 23.2157 343.284 22.8173 341.35 22.8173H334.808V83.7725C334.808 84.6055 335.039 85.2749 335.502 85.7815C336.049 86.3384 336.737 86.7326 337.489 86.9215L340.544 87.6282C342.083 88.0975 342.852 89.038 342.85 90.449C342.85 92.1509 341.743 93.0012 339.528 93H313.466C312.322 93 311.483 92.7669 310.946 92.2951C310.682 92.067 310.473 91.7823 310.334 91.4609C310.195 91.1396 310.129 90.7909 310.141 90.4403C310.141 89.0312 310.91 88.0907 312.448 87.6195L315.502 86.9128C316.255 86.7232 316.942 86.3291 317.489 85.7734C317.969 85.2202 318.218 84.4998 318.184 83.7645V22.8173H311.64C309.74 22.8173 308.121 23.2157 306.786 24.0126C305.45 24.8094 304.119 26.2919 302.791 28.4613C301.468 30.6331 299.877 33.8175 298.017 38.0157C297.591 38.9574 297.052 39.5814 296.408 39.8866C295.719 40.2005 294.944 40.2677 294.212 40.0762C293.35 39.9339 292.735 39.5261 292.359 38.8561C291.982 38.1866 291.902 37.3276 292.118 36.2783L295.712 18.8528C296.069 17.4436 296.56 16.4491 297.186 15.8692C297.812 15.2898 298.733 15.0002 299.949 15.0002C300.709 14.994 301.46 15.1612 302.148 15.4881C302.827 15.8138 303.596 16.1482 304.455 16.492C305.314 16.8351 306.422 17.0073 307.78 17.0091Z" fill="#BC2327"/>
<path d="M417.728 90.4331C417.74 90.783 417.674 91.1317 417.534 91.453C417.394 91.7737 417.184 92.059 416.919 92.2871C416.378 92.7588 415.53 92.9919 414.378 92.9919H397.408C396.253 92.9919 395.398 92.7694 394.839 92.3138C394.563 92.0901 394.344 91.8036 394.198 91.4785C394.052 91.1528 393.986 90.7973 394.003 90.4412C393.993 89.9284 394.165 89.4287 394.489 89.0322C394.813 88.6325 395.372 88.2341 396.165 87.837L397.948 87.1321C398.943 86.6623 399.794 85.9301 400.41 85.0146C400.966 84.1463 401.605 82.6086 402.326 80.4016L419.57 27.5362C420.072 25.9457 420.215 24.7977 419.999 24.0916C419.782 23.3856 419.044 22.8156 417.783 22.3812C416.776 22.0536 416.064 21.6665 415.649 21.2134C415.232 20.7453 415.011 20.1331 415.034 19.5054C415.014 19.1511 415.08 18.7975 415.226 18.4743C415.372 18.1517 415.594 17.8689 415.873 17.6508C416.429 17.2163 417.286 17 418.44 17H445.029C446.183 17 447.029 17.2163 447.57 17.6508C448.112 18.0858 448.381 18.7017 448.381 19.5054C448.402 20.1294 448.19 20.7391 447.786 21.2134C447.388 21.6665 446.723 22.0375 445.785 22.3278C444.815 22.6534 444.237 23.086 444.058 23.6299C443.88 24.1737 443.984 25.0414 444.38 26.2341L462.639 81.5409C463.217 83.3843 463.832 84.7324 464.486 85.5852C465.132 86.436 466.072 87.0582 467.295 87.4559C468.377 87.8556 469.098 88.272 469.457 88.7046C469.836 89.2012 470.027 89.8165 469.997 90.4412C470.009 90.7942 469.94 91.1454 469.795 91.4667C469.649 91.7886 469.432 92.0721 469.16 92.2958C468.599 92.7675 467.746 93 466.593 93H442.751C441.598 93 440.743 92.7675 440.185 92.2958C439.703 91.8682 439.406 91.2703 439.355 90.627C439.304 89.9837 439.505 89.346 439.914 88.8488C440.293 88.4367 440.894 88.0986 441.725 87.845L444.803 87.1943C445.739 86.9059 446.188 86.4354 446.151 85.7828C446.114 85.1302 445.861 84.081 445.394 82.6347L426.371 23.5292L428.154 22.5521L409.615 79.524C409.148 81.0418 408.904 82.2631 408.885 83.1891C408.864 83.6099 408.927 84.0313 409.07 84.4273C409.214 84.8232 409.436 85.1861 409.722 85.4944C410.299 86.1097 411.218 86.671 412.48 87.1775L415.397 87.8842C416.034 88.1005 416.622 88.4411 417.127 88.888C417.328 89.0887 417.486 89.3305 417.589 89.5965C417.691 89.8631 417.742 90.1478 417.728 90.4331ZM411.345 62.0485H443.396L443.6 67.8542H410.918L411.345 62.0485Z" fill="#BC2327"/>
<path d="M534.758 90.4412C534.772 90.7861 534.706 91.1298 534.564 91.4456C534.423 91.7607 534.211 92.0385 533.944 92.2585C533.395 92.7141 532.544 92.9596 531.393 92.9938H513.42C512.264 92.959 511.403 92.7135 510.842 92.2585C510.569 92.0428 510.35 91.7663 510.204 91.4505C510.058 91.1348 509.989 90.7886 510.002 90.4412C510.002 89.1391 510.816 88.1775 512.444 87.5566L514.942 86.7984C516.607 86.1818 517.738 85.495 518.334 84.738C518.932 83.976 519.231 82.7479 519.231 81.0461V34.1045C519.231 32.9118 519.087 31.9447 518.798 31.2013C518.509 30.4586 517.839 29.4362 516.787 28.1353L512.225 22.4881C511.75 21.9064 511.332 21.2798 510.976 20.6173C510.769 20.204 510.658 19.749 510.653 19.2866C510.637 18.9659 510.697 18.6458 510.829 18.3531C510.961 18.0603 511.162 17.803 511.414 17.6035C511.919 17.2076 512.606 17.0093 513.474 17.0081H525.799C526.883 17.0081 527.79 17.1976 528.511 17.5768C529.232 17.9559 529.976 18.6725 530.737 19.7217L573.034 75.4095L570.413 81.8125V28.9495C570.413 27.2844 570.142 26.0718 569.601 25.3111C569.06 24.5497 567.9 23.8449 566.124 23.1948L563.628 22.4346C562 21.7478 561.185 20.7863 561.184 19.5501C561.167 19.194 561.235 18.8391 561.381 18.514C561.528 18.189 561.749 17.9031 562.027 17.6793C562.585 17.2262 563.428 17 564.549 17H582.521C583.681 17 584.547 17.2262 585.128 17.6793C585.412 17.8987 585.64 18.1834 585.791 18.5091C585.943 18.8347 586.013 19.1915 585.998 19.5501C585.998 20.8174 585.161 21.7752 583.5 22.4346L581 23.1948C579.335 23.7747 578.204 24.444 577.607 25.2035C577.011 25.9637 576.713 27.2117 576.711 28.9495V77.3667C576.695 78.381 576.804 79.3935 577.037 80.3805C577.257 81.2351 577.645 82.0375 578.176 82.7417L581.489 87.1384C582.176 88.0079 582.601 88.6767 582.766 89.1453C582.926 89.599 583.008 90.0757 583.01 90.5568C583.021 90.888 582.958 91.2187 582.827 91.5233C582.696 91.8284 582.498 92.1007 582.249 92.3201C581.744 92.7732 581 93 580.025 93H565.638C563.898 93 563.029 92.294 563.031 90.8818C563.031 90.3138 562.911 89.7519 562.678 89.2335C562.44 88.709 561.798 87.7226 560.749 86.275L520.311 32.8024L525.576 29.1658V81.1058C525.576 82.6994 525.851 83.8753 526.401 84.6355C526.95 85.395 528.087 86.1215 529.811 86.8152L532.312 87.5734C533.94 88.2242 534.754 89.1857 534.754 90.4573" fill="#BC2327"/>
<path d="M591.642 11.9998C591.642 9.96575 592.22 7.97722 593.303 6.28578C594.385 4.59496 595.925 3.27677 597.726 2.49784C599.526 1.71952 601.508 1.51543 603.42 1.91239C605.332 2.30872 607.088 3.28864 608.467 4.72667C609.845 6.16471 610.784 7.99721 611.165 9.99198C611.545 11.9868 611.35 14.0552 610.604 15.9345C609.859 17.8138 608.596 19.4197 606.975 20.5507C605.355 21.681 603.449 22.2839 601.5 22.2845C598.887 22.282 596.381 21.1973 594.533 19.2693C592.685 17.3413 591.645 14.7267 591.642 11.9998ZM590 11.9998C590 14.3729 590.674 16.6934 591.938 18.6664C593.201 20.6399 594.998 22.1778 597.099 23.0866C599.2 23.9947 601.513 24.2325 603.744 23.7694C605.974 23.3063 608.023 22.1635 609.632 20.4851C611.24 18.8068 612.335 16.6685 612.779 14.341C613.223 12.0129 612.995 9.60002 612.124 7.40739C611.254 5.21476 609.78 3.34044 607.889 2.02224C605.998 0.703422 603.775 0 601.5 0C598.451 0.00312073 595.528 1.26828 593.372 3.51833C591.216 5.76775 590.003 8.81795 590 11.9998Z" fill="#BC2327"/>
<path d="M598.705 7.36659H600.804C601.897 7.36659 602.55 7.3824 602.769 7.41269C603.159 7.46473 603.519 7.65969 603.784 7.96268C604.034 8.28411 604.162 8.69118 604.142 9.10482C604.155 9.47565 604.061 9.84187 603.872 10.1554C603.689 10.434 603.423 10.6415 603.116 10.7449C602.793 10.8608 601.987 10.9188 600.697 10.9168H598.705V7.36659ZM596 5V18.9934H598.705V13.1569H599.248C599.705 13.1365 600.163 13.1892 600.605 13.3144C600.916 13.4375 601.193 13.6371 601.414 13.8973C601.93 14.5494 602.403 15.2364 602.831 15.9543L604.781 19H608L606.373 16.2685C605.924 15.4669 605.411 14.7075 604.839 13.9981C604.416 13.5344 603.93 13.1392 603.397 12.823C604.569 12.6438 605.449 12.2131 606.036 11.5307C606.636 10.8134 606.952 9.88203 606.918 8.92828C606.93 8.14908 606.728 7.38372 606.335 6.72308C605.976 6.10657 605.43 5.63429 604.785 5.38202C604.14 5.13172 603.104 5.00658 601.676 5.00658L596 5Z" fill="#BC2327"/>
</svg>
