<svg xmlns="http://www.w3.org/2000/svg" version="1.1" xmlns:xlink="http://www.w3.org/1999/xlink" width="512" height="512"><svg width="512" height="512" viewBox="0 0 512 512" fill="none" xmlns="http://www.w3.org/2000/svg">
<path d="M499.928 103.38C499.928 103.38 464.877 195.262 403.385 172.257C419.164 151.898 443.104 127.227 432.462 96.0316C432.462 96.0316 424.28 146.705 380.949 143.393C353.649 141.316 356.012 127.717 329.006 140.67C326.37 141.943 323.226 141.591 320.453 140.65C305.534 135.594 253.416 115.157 163.903 51.7855C160.661 49.4929 157.303 47.3766 153.846 45.4563C145.02 40.5771 128.226 27.5658 118.033 18.3169C100.576 2.5231 91.8471 -7.3529 67.848 10.6551C48.3403 25.2732 23.775 33.9147 14.7339 41.6548C12.9959 43.144 12 45.3191 12 47.6118V403.559C12 403.559 19.3228 422.077 54.218 408.732C54.218 408.732 26.4502 387.374 29.4574 353.689C30.6485 344.46 35.9991 335.466 40.92 331.508C45.5089 327.804 49.7267 328.843 49.7267 328.843C49.7267 328.843 41.7596 377.027 59.3732 393.213C79.1348 411.397 105.399 394.722 123.188 401.717C140.958 408.732 179.349 437.087 176.537 472.593C173.705 508.119 165.895 510.961 165.895 510.961L200.926 511C200.926 511 202.996 510.667 202.996 508.492C202.996 506.317 203.035 480.647 203.035 480.647C203.035 480.647 221.86 454.664 200.302 412.024C178.724 369.366 181.594 339.973 181.594 339.973C181.594 339.973 207.937 323.14 205.984 277.405C205.73 271.409 207.585 265.432 211.413 260.828C211.901 260.22 212.37 259.75 212.76 259.475C215.084 257.81 219.731 263.14 222.055 288.496C224.398 313.833 234.357 376.871 251.307 387.55C268.257 398.229 283.859 400.248 289.209 391.547C311.139 355.864 331.759 325.178 331.759 325.178C331.759 325.178 351.033 325.511 360.66 304.838C370.306 284.146 377.941 244.466 377.941 244.466C377.941 244.466 503.424 219.109 499.928 103.38ZM256.501 130.852C253.885 135.359 241.172 128.227 241.172 128.227C241.172 128.227 168.394 89.1928 140.216 68.6962C140.216 68.6962 131.976 64.3265 127.992 71.224C127.387 72.2822 126.332 73.0464 125.122 72.9876C122.525 72.87 117.311 70.8125 107.313 61.6811C98.9551 54.0586 88.3712 50.1787 88.3712 50.1787C88.3712 50.1787 82.6302 45.9266 68.18 53.1768C53.7103 60.427 35.5108 67.4421 35.5108 67.4421C35.5108 67.4421 28.3639 70.2638 26.5478 65.4434C24.1655 59.1729 27.9147 56.4296 27.9147 56.4296L83.0012 24.6657C83.0012 24.6657 87.8635 22.667 93.0968 23.2745C98.3301 23.9015 104.813 28.1537 104.813 28.1537C104.813 28.1537 192.315 86.7042 248.397 119.213C248.397 119.213 259.118 126.345 256.501 130.852Z" fill="#D40C1A"></path>
</svg><style>@media (prefers-color-scheme: light) { :root { filter: none; } }
@media (prefers-color-scheme: dark) { :root { filter: none; } }
</style></svg>